HIERARCHY
ROOT Hips
{
	OFFSET 0.000000 0.000000 0.000000
	CHANNELS 6 Xposition Yposition Zposition Zrotation Yrotation Xrotation 
	JOINT LeftUpLeg_virtual
	{
		OFFSET 0.000000 0.000000 0.000000
		CHANNELS 3 Zrotation Yrotation Xrotation
		JOINT LeftUpLeg
		{
			OFFSET 10.205400 -3.823500 0.155100
			CHANNELS 3 Zrotation Yrotation Xrotation
			JOINT LeftLeg
			{
				OFFSET 0.708757 -12.982077 0.567790
				CHANNELS 3 Zrotation Yrotation Xrotation
				JOINT LeftFoot
				{
					OFFSET -0.708756 -10.717838 -2.184338
					CHANNELS 3 Zrotation Yrotation Xrotation
					JOINT LeftToeBase
					{
						OFFSET 0.108149 -7.191104 7.560241
						CHANNELS 3 Zrotation Yrotation Xrotation
						End Site
						{
							OFFSET 0.000000 0.000000 0.000000
						}
					}
				}
			}
		}
	}
	JOINT RightUpLeg_virtual
	{
		OFFSET 0.000000 0.000000 0.000000
		CHANNELS 3 Zrotation Yrotation Xrotation
		JOINT RightUpLeg
		{
			OFFSET -10.205400 -3.823500 0.005500
			CHANNELS 3 Zrotation Yrotation Xrotation
			JOINT RightLeg
			{
				OFFSET -0.708756 -12.982134 0.610632
				CHANNELS 3 Zrotation Yrotation Xrotation
				JOINT RightFoot
				{
					OFFSET 0.708754 -10.717769 -1.945823
					CHANNELS 3 Zrotation Yrotation Xrotation
					JOINT RightToeBase
					{
						OFFSET -0.108140 -7.191069 7.372968
						CHANNELS 3 Zrotation Yrotation Xrotation
						End Site
						{
							OFFSET 0.000000 0.000000 0.000000
						}
					}
				}
			}
		}
	}
	JOINT Spine_virtual
	{
		OFFSET 0.000000 0.000000 0.000000
		CHANNELS 3 Zrotation Yrotation Xrotation
		JOINT Spine
		{
			OFFSET 0.000000 6.876099 0.125700
			CHANNELS 3 Zrotation Yrotation Xrotation
			JOINT Spine1
			{
				OFFSET 0.000000 8.022060 0.146608
				CHANNELS 3 Zrotation Yrotation Xrotation
				JOINT Spine2
				{
					OFFSET 0.000000 9.168068 0.167552
					CHANNELS 3 Zrotation Yrotation Xrotation
					JOINT Neck_virtual
					{
						OFFSET 0.000000 0.000000 0.000000
						CHANNELS 3 Zrotation Yrotation Xrotation
						JOINT Neck
						{
							OFFSET 0.000000 10.314075 0.188496
							CHANNELS 3 Zrotation Yrotation Xrotation
							JOINT Head
							{
								OFFSET 0.000000 7.643700 -2.377400
								CHANNELS 3 Zrotation Yrotation Xrotation
								End Site
								{
									OFFSET 0.000000 0.000000 0.000000
								}
							}
						}
					}
					JOINT LeftShoulder_virtual
					{
						OFFSET 0.000000 0.000000 0.000000
						CHANNELS 3 Zrotation Yrotation Xrotation
						JOINT LeftShoulder
						{
							OFFSET 4.392200 8.824978 0.174984
							CHANNELS 3 Zrotation Yrotation Xrotation
							JOINT LeftArm
							{
								OFFSET 8.771219 -2.981674 -0.026999
								CHANNELS 3 Zrotation Yrotation Xrotation
								JOINT LeftForeArm
								{
									OFFSET 8.512804 0.000000 -0.000000
									CHANNELS 3 Zrotation Yrotation Xrotation
									JOINT LeftHand
									{
										OFFSET 18.484802 0.000000 -0.000000
										CHANNELS 3 Zrotation Yrotation Xrotation
										End Site
										{
											OFFSET 0.000000 0.000000 0.000000
										}
									}
								}
							}
						}
					}
					JOINT RightShoulder_virtual
					{
						OFFSET 0.000000 0.000000 0.000000
						CHANNELS 3 Zrotation Yrotation Xrotation
						JOINT RightShoulder
						{
							OFFSET -4.392200 8.824993 0.141379
							CHANNELS 3 Zrotation Yrotation Xrotation
							JOINT RightArm
							{
								OFFSET -8.771282 -2.981682 -0.094208
								CHANNELS 3 Zrotation Yrotation Xrotation
								JOINT RightForeArm
								{
									OFFSET -8.494598 0.000000 0.000000
									CHANNELS 3 Zrotation Yrotation Xrotation
									JOINT RightHand
									{
										OFFSET -18.483803 0.000000 0.000001
										CHANNELS 3 Zrotation Yrotation Xrotation
										End Site
										{
											OFFSET 0.000000 0.000000 0.000000
										}
									}
								}
							}
						}
					}
				}
			}
		}
	}
}
MOTION
Frames: 14
Frame Time: 0.033333
-2.329775 22.956787 29.871843 179.871693 6.248936 -179.877348 5.541348 -7.119683 -10.384394 -4.315457 2.712745 -91.249968 19.636674 -8.478235 124.234147 2.391175 -13.542315 13.703905 0.000000 0.000000 0.000000 5.069000 -0.056356 -10.292080 4.549252 -0.418991 -85.916232 -6.401801 -4.291372 117.194899 -12.912000 18.976157 6.703772 0.000000 0.000000 0.000000 3.162801 -1.472235 -9.946463 -1.460595 -0.179068 -0.078701 -2.206517 0.367865 18.160925 0.070747 -0.009159 0.010984 -2.649301 1.311382 20.161629 3.038928 -4.682560 9.125864 0.000000 0.000000 0.000000 -0.575279 1.943132 16.073641 -10.388275 -24.393172 7.191770 -11.550945 -16.159483 7.413695 -3.605316 -50.734232 4.743814 0.000000 0.000000 0.000000 -4.327204 2.812985 15.693540 17.630328 22.193902 3.133622 30.890767 22.716120 13.976045 -10.462924 45.432458 -4.511842 0.000000 0.000000 0.000000 
-2.343150 22.961348 29.898527 179.950199 6.188337 179.968723 5.543550 -7.134331 -10.230953 -4.235794 2.642619 -91.341902 20.039625 -8.782414 124.116326 2.313295 -13.789355 13.761761 0.000000 0.000000 0.000000 5.032393 -0.110053 -10.052135 4.570396 -0.308669 -86.011104 -6.293284 -4.280770 116.999337 -12.875845 19.038399 6.960600 0.000000 0.000000 0.000000 3.153134 -1.451233 -9.702745 -1.528208 -0.117123 -0.178644 -2.156934 0.392024 18.103034 -0.002017 0.007450 -0.015411 -2.603439 1.293775 20.104488 3.194445 -4.680842 8.727033 0.000000 0.000000 0.000000 -0.516433 1.970617 16.058128 -10.333225 -24.487447 7.258649 -11.245975 -16.285807 7.641527 -3.558469 -50.705248 4.631595 0.000000 0.000000 0.000000 -4.261724 2.866106 15.706901 17.569098 22.269707 3.071406 30.314982 22.547730 13.830861 -10.275355 45.496395 -4.304598 0.000000 0.000000 0.000000 
-2.350971 22.945498 29.909698 179.916554 6.068286 179.867035 5.421206 -7.196154 -10.167474 -4.567527 2.667529 -91.388266 19.729910 -8.565522 124.069621 2.701962 -13.546267 13.624603 0.000000 0.000000 0.000000 4.927325 -0.248907 -9.989612 4.596793 -0.173165 -86.091659 -6.311704 -4.213424 116.982098 -12.801248 19.090502 7.033517 0.000000 0.000000 0.000000 3.058165 -1.465419 -9.554978 -1.536585 -0.076881 -0.319851 -2.133621 0.390349 18.031010 0.016387 0.008728 -0.002461 -2.610694 1.341664 20.002969 3.328844 -4.714071 8.313187 0.000000 0.000000 0.000000 -0.567892 1.984759 16.043981 -10.420593 -24.508991 7.330648 -10.980033 -16.396964 7.668492 -3.586798 -50.579859 4.549377 0.000000 0.000000 0.000000 -4.275093 2.899526 15.677704 17.519545 22.322033 3.142573 29.725615 22.457595 13.744035 -10.164841 45.659125 -4.215058 0.000000 0.000000 0.000000 
-2.352602 22.913834 29.900690 179.885080 6.003503 179.934941 5.473819 -7.346332 -9.919495 -4.881439 2.808410 -91.713799 19.613964 -8.645891 124.190106 2.984094 -13.421095 13.275933 0.000000 0.000000 0.000000 4.844918 -0.250275 -9.797927 4.695537 -0.118536 -86.465810 -6.368187 -4.153071 117.058077 -12.699373 19.086282 7.094444 0.000000 0.000000 0.000000 3.109351 -1.488868 -9.512095 -1.597169 -0.047094 -0.541299 -2.184696 0.389203 17.937142 0.017377 0.018077 -0.013511 -2.577621 1.255618 20.008380 3.421346 -4.760264 7.925200 0.000000 0.000000 0.000000 -0.483672 2.007973 16.103701 -10.594412 -24.379887 7.333929 -10.710601 -16.464859 7.628409 -3.683611 -50.478865 4.549931 0.000000 0.000000 0.000000 -4.201349 2.895029 15.762528 17.448128 22.336747 2.942004 29.350631 22.399377 13.828011 -9.875996 45.908068 -3.936267 0.000000 0.000000 0.000000 
-2.363494 22.875402 29.884727 179.907948 5.847770 179.926403 5.534875 -7.529763 -9.708816 -5.215080 2.976872 -91.901240 19.570585 -8.686475 124.334359 3.290347 -13.321658 12.869353 0.000000 0.000000 0.000000 4.823451 -0.361323 -9.486530 4.746933 -0.136352 -87.025790 -6.437205 -4.071862 117.180884 -12.451281 18.944679 7.181946 0.000000 0.000000 0.000000 3.111316 -1.531381 -9.459937 -1.491683 -0.045508 -0.691288 -2.119745 0.337987 17.892282 0.034178 -0.013741 0.009506 -2.569778 1.286544 19.987461 3.501565 -4.792318 7.602707 0.000000 0.000000 0.000000 -0.505267 2.008570 16.162806 -10.711857 -24.344744 7.330156 -10.496075 -16.639022 7.518478 -3.711141 -50.382610 4.443650 0.000000 0.000000 0.000000 -4.208941 2.862997 15.751405 17.403184 22.341091 2.895171 29.053111 22.472115 13.883941 -9.669204 46.097954 -3.801017 0.000000 0.000000 0.000000 
-2.381817 22.831148 29.878895 179.916117 5.861358 -179.968928 5.586311 -7.628131 -9.568464 -5.511824 3.157177 -92.184693 19.546523 -8.743469 124.507833 3.587569 -13.258166 12.490989 0.000000 0.000000 0.000000 4.803249 -0.371106 -9.354035 4.729982 -0.188417 -87.476896 -6.492429 -4.030107 117.306204 -12.211101 18.810787 7.358183 0.000000 0.000000 0.000000 3.133299 -1.570821 -9.532565 -1.435871 -0.034427 -0.846450 -2.061286 0.319422 17.865540 0.004571 0.004104 0.012891 -2.532640 1.242107 19.976084 3.514874 -4.863677 7.321036 0.000000 0.000000 0.000000 -0.478587 1.952188 16.170854 -10.778798 -24.248795 7.358488 -10.310880 -16.755654 7.387622 -3.701755 -50.368042 4.324530 0.000000 0.000000 0.000000 -4.136284 2.839401 15.765472 17.346157 22.334500 2.905212 28.869277 22.575090 13.885200 -9.497924 46.181129 -3.701096 0.000000 0.000000 0.000000 
-2.401597 22.791454 29.873499 179.934927 5.878247 -179.978340 5.563595 -7.604263 -9.269760 -5.412999 3.097888 -92.281094 18.878243 -8.878372 124.196390 2.873594 -14.246823 12.761306 0.000000 0.000000 0.000000 4.820082 -0.470592 -9.196804 4.649743 -0.263494 -87.864920 -6.737948 -3.936203 117.429844 -11.837362 18.745765 7.605683 0.000000 0.000000 0.000000 3.192543 -1.657371 -9.520488 -1.400694 -0.025933 -0.909703 -2.017757 0.281302 17.867630 -0.074338 -0.013132 0.020299 -2.472968 1.210831 19.985113 3.516332 -4.934575 7.156255 0.000000 0.000000 0.000000 -0.368651 2.042479 16.205703 -10.751288 -24.214452 7.313744 -10.197651 -16.920793 7.267364 -3.724057 -50.363100 4.242829 0.000000 0.000000 0.000000 -4.054344 2.841665 15.760429 17.260885 22.409455 2.746873 28.731447 22.650442 13.763663 -9.275651 46.232417 -3.594173 0.000000 0.000000 0.000000 
-2.410073 22.753572 29.872150 179.896637 5.926337 -179.978203 5.526096 -7.651247 -9.094613 -5.446002 3.116513 -92.475782 18.422815 -9.001068 124.087352 2.494792 -14.889502 12.936712 0.000000 0.000000 0.000000 4.816415 -0.493077 -9.029046 4.644700 -0.298940 -88.319079 -6.876577 -3.913551 117.534933 -11.516882 18.613835 7.921795 0.000000 0.000000 0.000000 3.215513 -1.706028 -9.547868 -1.391298 0.031908 -0.939867 -2.008304 0.286515 17.871584 0.008580 0.002633 0.024098 -2.447938 1.185044 20.014041 3.446745 -5.052438 7.085955 0.000000 0.000000 0.000000 -0.394252 1.881404 16.190052 -10.695877 -24.163538 7.295734 -10.106388 -16.988492 7.118141 -3.709823 -50.412796 4.112258 0.000000 0.000000 0.000000 -4.033975 2.771837 15.770565 17.168087 22.388129 2.657705 28.628692 22.672538 13.707813 -9.149734 46.145369 -3.552273 0.000000 0.000000 0.000000 
-2.397954 22.721148 29.865351 179.904191 5.994605 -179.982110 5.564740 -7.632981 -9.029822 -5.526829 3.138093 -92.615992 18.291689 -9.117855 124.241605 2.682344 -15.112823 12.766956 0.000000 0.000000 0.000000 4.870575 -0.460846 -8.919758 4.616647 -0.276666 -88.698216 -7.106056 -3.830541 117.693653 -11.249967 18.483289 8.098761 0.000000 0.000000 0.000000 3.278195 -1.709970 -9.558604 -1.381089 0.073513 -0.926324 -2.005881 0.281150 17.888785 0.091332 0.025523 0.029785 -2.466009 1.194696 20.029975 3.342687 -5.199835 7.148097 0.000000 0.000000 0.000000 -0.403498 1.858115 16.163883 -10.553663 -24.183822 7.151308 -10.101466 -16.983315 7.039208 -3.725786 -50.422717 4.026060 0.000000 0.000000 0.000000 -4.053072 2.683104 15.766494 17.061645 22.424052 2.529648 28.495619 22.723350 13.383432 -8.748885 46.050826 -3.261833 0.000000 0.000000 0.000000 
-2.379794 22.697681 29.842682 179.948505 6.089816 -179.945363 5.660363 -7.572936 -9.031008 -5.572441 3.130419 -92.705666 18.158367 -9.156073 124.363511 2.812719 -15.346255 12.591667 0.000000 0.000000 0.000000 4.974041 -0.409111 -8.851980 4.539795 -0.207618 -88.933906 -7.368155 -3.736659 117.925948 -11.007612 18.431195 8.138803 0.000000 0.000000 0.000000 3.357784 -1.687587 -9.607423 -1.377214 0.083466 -0.951866 -1.973730 0.227327 17.882719 0.021559 -0.003703 0.015932 -2.459870 1.170678 20.042581 3.307851 -5.305810 7.295076 0.000000 0.000000 0.000000 -0.374789 1.854416 16.100274 -10.419322 -24.193818 7.101269 -10.150617 -16.941448 7.049689 -3.638525 -50.478264 3.867245 0.000000 0.000000 0.000000 -4.023503 2.629642 15.795996 16.970143 22.622141 2.495081 28.347390 22.631494 13.229901 -8.599218 45.980062 -3.182110 0.000000 0.000000 0.000000 
-2.361432 22.681854 29.809870 179.994609 6.278236 -179.960089 5.752746 -7.403769 -9.025146 -5.632247 3.117010 -92.641312 17.987139 -9.212670 124.518856 2.898484 -15.504123 12.463640 0.000000 0.000000 0.000000 5.076612 -0.294873 -8.785620 4.593647 -0.138557 -89.049875 -7.635182 -3.520250 118.059465 -10.851014 18.425559 8.128814 0.000000 0.000000 0.000000 3.466905 -1.629076 -9.626260 -1.360441 0.084439 -0.973813 -2.008063 0.178191 17.841987 0.052904 -0.033266 0.007537 -2.518202 1.245845 20.003278 3.298895 -5.397411 7.529612 0.000000 0.000000 0.000000 -0.451901 1.912928 16.017962 -10.346415 -24.222479 7.026391 -10.260126 -16.893303 7.194904 -3.662283 -50.504714 3.796596 0.000000 0.000000 0.000000 -4.068723 2.764510 15.694648 16.905476 22.635903 2.446512 28.201129 22.448832 13.239444 -8.494291 45.992660 -3.132827 0.000000 0.000000 0.000000 
-2.348937 22.676924 29.781021 179.933151 6.334435 -179.860246 5.738876 -7.392728 -9.103243 -5.631341 3.103107 -92.566590 17.866619 -9.250451 124.628877 2.921611 -15.644359 12.384525 0.000000 0.000000 0.000000 5.050457 -0.280783 -8.801727 4.536782 -0.100104 -89.190004 -7.432069 -3.730236 118.216422 -10.978809 18.246702 8.151418 0.000000 0.000000 0.000000 3.508010 -1.569780 -9.732609 -1.415657 0.126386 -1.068285 -1.987998 0.162628 17.803028 0.012862 -0.023624 0.023007 -2.466237 1.111428 19.945450 3.325990 -5.526141 7.804697 0.000000 0.000000 0.000000 -0.396132 1.819788 15.951499 -10.319967 -24.362895 6.981939 -10.346370 -16.873516 7.379274 -3.612383 -50.500896 3.679838 0.000000 0.000000 0.000000 -4.004177 2.643326 15.638019 16.831172 22.649076 2.445521 27.983575 22.367763 13.119631 -8.245850 45.984156 -2.972180 0.000000 0.000000 0.000000 
-2.340432 22.677687 29.755165 179.960595 6.495738 -179.856626 5.825047 -7.277327 -9.118943 -5.676128 3.091020 -92.480591 17.792597 -9.293635 124.705676 2.923118 -15.694663 12.348795 0.000000 0.000000 0.000000 5.096397 -0.176875 -8.740259 4.498309 -0.084614 -89.186438 -7.563163 -3.711991 118.304423 -10.991235 18.310740 8.035460 0.000000 0.000000 0.000000 3.644654 -1.656678 -9.750250 -1.382090 0.210788 -1.125204 -1.977521 0.209315 17.720905 -0.042783 -0.097277 -0.027392 -2.480780 1.118408 19.953588 3.402745 -5.678035 8.136060 0.000000 0.000000 0.000000 -0.381962 1.861728 15.904234 -10.348688 -24.425994 6.935955 -10.394047 -16.815062 7.561433 -3.588879 -50.462069 3.592516 0.000000 0.000000 0.000000 -3.976411 2.693100 15.640117 16.772631 22.728127 2.412114 27.833525 22.169145 13.012004 -8.094560 46.136862 -2.838972 0.000000 0.000000 0.000000 
-2.331289 22.677824 29.734312 179.946033 6.468319 -179.935419 5.822306 -7.291599 -9.087012 -5.698211 3.095728 -92.404448 17.803011 -9.318727 124.745660 2.889969 -15.708532 12.317590 0.000000 0.000000 0.000000 5.081117 -0.223143 -8.615523 4.477365 -0.093707 -89.197025 -7.661021 -3.702590 118.374719 -11.068924 18.422349 7.896046 0.000000 0.000000 0.000000 3.709606 -1.548555 -9.692607 -1.385301 0.184278 -1.179687 -1.978824 0.119295 17.669315 -0.019372 0.001955 0.006030 -2.424569 1.022343 19.838163 3.551166 -5.786687 8.481134 0.000000 0.000000 0.000000 -0.373742 1.779976 15.813136 -10.417878 -24.571380 6.880481 -10.496011 -16.785521 7.690940 -3.571508 -50.376972 3.491316 0.000000 0.000000 0.000000 -3.984708 2.522249 15.509551 16.721831 22.736313 2.453560 27.673053 22.084857 12.888634 -8.100860 46.282916 -2.926907 0.000000 0.000000 0.000000 
